<mxfile host="app.diagrams.net" modified="2024-04-11T00:17:25.845Z" agent="Mozilla/5.0 (Macintosh; Intel Mac OS X 10_15_7) AppleWebKit/605.1.15 (KHTML, like Gecko) Version/17.4.1 Safari/605.1.15" etag="HcC1StKFXBNruKuTiO0L" version="24.2.2" type="device">
  <diagram name="Page-1" id="sDhVfOKBSi10bKXr3Vuz">
    <mxGraphModel dx="1354" dy="1097" grid="0" gridSize="10" guides="1" tooltips="1" connect="1" arrows="1" fold="1" page="0" pageScale="1" pageWidth="827" pageHeight="1169" math="0" shadow="0">
      <root>
        <mxCell id="0" />
        <mxCell id="1" parent="0" />
        <mxCell id="7VZWP-ycFN_4uUj7qxjZ-1" value="Films" style="shape=table;startSize=30;container=1;collapsible=1;childLayout=tableLayout;fixedRows=1;rowLines=0;fontStyle=1;align=center;resizeLast=1;html=1;" parent="1" vertex="1">
          <mxGeometry x="-243" y="-223" width="213.75" height="420" as="geometry">
            <mxRectangle x="-249" y="-219" width="64" height="30" as="alternateBounds" />
          </mxGeometry>
        </mxCell>
        <mxCell id="7VZWP-ycFN_4uUj7qxjZ-2" value="" style="shape=tableRow;horizontal=0;startSize=0;swimlaneHead=0;swimlaneBody=0;fillColor=none;collapsible=0;dropTarget=0;points=[[0,0.5],[1,0.5]];portConstraint=eastwest;top=0;left=0;right=0;bottom=1;" parent="7VZWP-ycFN_4uUj7qxjZ-1" vertex="1">
          <mxGeometry y="30" width="213.75" height="30" as="geometry" />
        </mxCell>
        <mxCell id="7VZWP-ycFN_4uUj7qxjZ-3" value="PK" style="shape=partialRectangle;connectable=0;fillColor=none;top=0;left=0;bottom=0;right=0;fontStyle=1;overflow=hidden;whiteSpace=wrap;html=1;" parent="7VZWP-ycFN_4uUj7qxjZ-2" vertex="1">
          <mxGeometry width="30" height="30" as="geometry">
            <mxRectangle width="30" height="30" as="alternateBounds" />
          </mxGeometry>
        </mxCell>
        <mxCell id="7VZWP-ycFN_4uUj7qxjZ-4" value="Film_ID INTEGER NOT NULL" style="shape=partialRectangle;connectable=0;fillColor=none;top=0;left=0;bottom=0;right=0;align=left;spacingLeft=6;fontStyle=5;overflow=hidden;whiteSpace=wrap;html=1;" parent="7VZWP-ycFN_4uUj7qxjZ-2" vertex="1">
          <mxGeometry x="30" width="183.75" height="30" as="geometry">
            <mxRectangle width="183.75" height="30" as="alternateBounds" />
          </mxGeometry>
        </mxCell>
        <mxCell id="7VZWP-ycFN_4uUj7qxjZ-5" value="" style="shape=tableRow;horizontal=0;startSize=0;swimlaneHead=0;swimlaneBody=0;fillColor=none;collapsible=0;dropTarget=0;points=[[0,0.5],[1,0.5]];portConstraint=eastwest;top=0;left=0;right=0;bottom=0;" parent="7VZWP-ycFN_4uUj7qxjZ-1" vertex="1">
          <mxGeometry y="60" width="213.75" height="30" as="geometry" />
        </mxCell>
        <mxCell id="7VZWP-ycFN_4uUj7qxjZ-6" value="" style="shape=partialRectangle;connectable=0;fillColor=none;top=0;left=0;bottom=0;right=0;editable=1;overflow=hidden;whiteSpace=wrap;html=1;" parent="7VZWP-ycFN_4uUj7qxjZ-5" vertex="1">
          <mxGeometry width="30" height="30" as="geometry">
            <mxRectangle width="30" height="30" as="alternateBounds" />
          </mxGeometry>
        </mxCell>
        <mxCell id="7VZWP-ycFN_4uUj7qxjZ-7" value="Name&amp;nbsp;TEXT" style="shape=partialRectangle;connectable=0;fillColor=none;top=0;left=0;bottom=0;right=0;align=left;spacingLeft=6;overflow=hidden;whiteSpace=wrap;html=1;" parent="7VZWP-ycFN_4uUj7qxjZ-5" vertex="1">
          <mxGeometry x="30" width="183.75" height="30" as="geometry">
            <mxRectangle width="183.75" height="30" as="alternateBounds" />
          </mxGeometry>
        </mxCell>
        <mxCell id="7VZWP-ycFN_4uUj7qxjZ-8" value="" style="shape=tableRow;horizontal=0;startSize=0;swimlaneHead=0;swimlaneBody=0;fillColor=none;collapsible=0;dropTarget=0;points=[[0,0.5],[1,0.5]];portConstraint=eastwest;top=0;left=0;right=0;bottom=0;" parent="7VZWP-ycFN_4uUj7qxjZ-1" vertex="1">
          <mxGeometry y="90" width="213.75" height="30" as="geometry" />
        </mxCell>
        <mxCell id="7VZWP-ycFN_4uUj7qxjZ-9" value="" style="shape=partialRectangle;connectable=0;fillColor=none;top=0;left=0;bottom=0;right=0;editable=1;overflow=hidden;whiteSpace=wrap;html=1;" parent="7VZWP-ycFN_4uUj7qxjZ-8" vertex="1">
          <mxGeometry width="30" height="30" as="geometry">
            <mxRectangle width="30" height="30" as="alternateBounds" />
          </mxGeometry>
        </mxCell>
        <mxCell id="7VZWP-ycFN_4uUj7qxjZ-10" value="Genres&amp;nbsp;TEXT" style="shape=partialRectangle;connectable=0;fillColor=none;top=0;left=0;bottom=0;right=0;align=left;spacingLeft=6;overflow=hidden;whiteSpace=wrap;html=1;" parent="7VZWP-ycFN_4uUj7qxjZ-8" vertex="1">
          <mxGeometry x="30" width="183.75" height="30" as="geometry">
            <mxRectangle width="183.75" height="30" as="alternateBounds" />
          </mxGeometry>
        </mxCell>
        <mxCell id="7VZWP-ycFN_4uUj7qxjZ-11" value="" style="shape=tableRow;horizontal=0;startSize=0;swimlaneHead=0;swimlaneBody=0;fillColor=none;collapsible=0;dropTarget=0;points=[[0,0.5],[1,0.5]];portConstraint=eastwest;top=0;left=0;right=0;bottom=0;" parent="7VZWP-ycFN_4uUj7qxjZ-1" vertex="1">
          <mxGeometry y="120" width="213.75" height="30" as="geometry" />
        </mxCell>
        <mxCell id="7VZWP-ycFN_4uUj7qxjZ-12" value="" style="shape=partialRectangle;connectable=0;fillColor=none;top=0;left=0;bottom=0;right=0;editable=1;overflow=hidden;whiteSpace=wrap;html=1;" parent="7VZWP-ycFN_4uUj7qxjZ-11" vertex="1">
          <mxGeometry width="30" height="30" as="geometry">
            <mxRectangle width="30" height="30" as="alternateBounds" />
          </mxGeometry>
        </mxCell>
        <mxCell id="7VZWP-ycFN_4uUj7qxjZ-13" value="Director TEXT" style="shape=partialRectangle;connectable=0;fillColor=none;top=0;left=0;bottom=0;right=0;align=left;spacingLeft=6;overflow=hidden;whiteSpace=wrap;html=1;" parent="7VZWP-ycFN_4uUj7qxjZ-11" vertex="1">
          <mxGeometry x="30" width="183.75" height="30" as="geometry">
            <mxRectangle width="183.75" height="30" as="alternateBounds" />
          </mxGeometry>
        </mxCell>
        <mxCell id="7VZWP-ycFN_4uUj7qxjZ-21" value="" style="shape=tableRow;horizontal=0;startSize=0;swimlaneHead=0;swimlaneBody=0;fillColor=none;collapsible=0;dropTarget=0;points=[[0,0.5],[1,0.5]];portConstraint=eastwest;top=0;left=0;right=0;bottom=0;" parent="7VZWP-ycFN_4uUj7qxjZ-1" vertex="1">
          <mxGeometry y="150" width="213.75" height="30" as="geometry" />
        </mxCell>
        <mxCell id="7VZWP-ycFN_4uUj7qxjZ-22" value="" style="shape=partialRectangle;connectable=0;fillColor=none;top=0;left=0;bottom=0;right=0;editable=1;overflow=hidden;" parent="7VZWP-ycFN_4uUj7qxjZ-21" vertex="1">
          <mxGeometry width="30" height="30" as="geometry">
            <mxRectangle width="30" height="30" as="alternateBounds" />
          </mxGeometry>
        </mxCell>
        <mxCell id="7VZWP-ycFN_4uUj7qxjZ-23" value="Date INTEGER" style="shape=partialRectangle;connectable=0;fillColor=none;top=0;left=0;bottom=0;right=0;align=left;spacingLeft=6;overflow=hidden;" parent="7VZWP-ycFN_4uUj7qxjZ-21" vertex="1">
          <mxGeometry x="30" width="183.75" height="30" as="geometry">
            <mxRectangle width="183.75" height="30" as="alternateBounds" />
          </mxGeometry>
        </mxCell>
        <mxCell id="7VZWP-ycFN_4uUj7qxjZ-24" value="" style="shape=tableRow;horizontal=0;startSize=0;swimlaneHead=0;swimlaneBody=0;fillColor=none;collapsible=0;dropTarget=0;points=[[0,0.5],[1,0.5]];portConstraint=eastwest;top=0;left=0;right=0;bottom=0;" parent="7VZWP-ycFN_4uUj7qxjZ-1" vertex="1">
          <mxGeometry y="180" width="213.75" height="30" as="geometry" />
        </mxCell>
        <mxCell id="7VZWP-ycFN_4uUj7qxjZ-25" value="" style="shape=partialRectangle;connectable=0;fillColor=none;top=0;left=0;bottom=0;right=0;editable=1;overflow=hidden;" parent="7VZWP-ycFN_4uUj7qxjZ-24" vertex="1">
          <mxGeometry width="30" height="30" as="geometry">
            <mxRectangle width="30" height="30" as="alternateBounds" />
          </mxGeometry>
        </mxCell>
        <mxCell id="7VZWP-ycFN_4uUj7qxjZ-26" value="Rating INTEGER" style="shape=partialRectangle;connectable=0;fillColor=none;top=0;left=0;bottom=0;right=0;align=left;spacingLeft=6;overflow=hidden;" parent="7VZWP-ycFN_4uUj7qxjZ-24" vertex="1">
          <mxGeometry x="30" width="183.75" height="30" as="geometry">
            <mxRectangle width="183.75" height="30" as="alternateBounds" />
          </mxGeometry>
        </mxCell>
        <mxCell id="7VZWP-ycFN_4uUj7qxjZ-27" value="" style="shape=tableRow;horizontal=0;startSize=0;swimlaneHead=0;swimlaneBody=0;fillColor=none;collapsible=0;dropTarget=0;points=[[0,0.5],[1,0.5]];portConstraint=eastwest;top=0;left=0;right=0;bottom=0;" parent="7VZWP-ycFN_4uUj7qxjZ-1" vertex="1">
          <mxGeometry y="210" width="213.75" height="30" as="geometry" />
        </mxCell>
        <mxCell id="7VZWP-ycFN_4uUj7qxjZ-28" value="" style="shape=partialRectangle;connectable=0;fillColor=none;top=0;left=0;bottom=0;right=0;editable=1;overflow=hidden;" parent="7VZWP-ycFN_4uUj7qxjZ-27" vertex="1">
          <mxGeometry width="30" height="30" as="geometry">
            <mxRectangle width="30" height="30" as="alternateBounds" />
          </mxGeometry>
        </mxCell>
        <mxCell id="7VZWP-ycFN_4uUj7qxjZ-29" value="Availability INTEGER" style="shape=partialRectangle;connectable=0;fillColor=none;top=0;left=0;bottom=0;right=0;align=left;spacingLeft=6;overflow=hidden;" parent="7VZWP-ycFN_4uUj7qxjZ-27" vertex="1">
          <mxGeometry x="30" width="183.75" height="30" as="geometry">
            <mxRectangle width="183.75" height="30" as="alternateBounds" />
          </mxGeometry>
        </mxCell>
        <mxCell id="7VZWP-ycFN_4uUj7qxjZ-52" value="" style="shape=tableRow;horizontal=0;startSize=0;swimlaneHead=0;swimlaneBody=0;fillColor=none;collapsible=0;dropTarget=0;points=[[0,0.5],[1,0.5]];portConstraint=eastwest;top=0;left=0;right=0;bottom=0;" parent="7VZWP-ycFN_4uUj7qxjZ-1" vertex="1">
          <mxGeometry y="240" width="213.75" height="30" as="geometry" />
        </mxCell>
        <mxCell id="7VZWP-ycFN_4uUj7qxjZ-53" value="" style="shape=partialRectangle;connectable=0;fillColor=none;top=0;left=0;bottom=0;right=0;editable=1;overflow=hidden;" parent="7VZWP-ycFN_4uUj7qxjZ-52" vertex="1">
          <mxGeometry width="30" height="30" as="geometry">
            <mxRectangle width="30" height="30" as="alternateBounds" />
          </mxGeometry>
        </mxCell>
        <mxCell id="7VZWP-ycFN_4uUj7qxjZ-54" value="Category TEXT" style="shape=partialRectangle;connectable=0;fillColor=none;top=0;left=0;bottom=0;right=0;align=left;spacingLeft=6;overflow=hidden;" parent="7VZWP-ycFN_4uUj7qxjZ-52" vertex="1">
          <mxGeometry x="30" width="183.75" height="30" as="geometry">
            <mxRectangle width="183.75" height="30" as="alternateBounds" />
          </mxGeometry>
        </mxCell>
        <mxCell id="7VZWP-ycFN_4uUj7qxjZ-97" value="" style="shape=tableRow;horizontal=0;startSize=0;swimlaneHead=0;swimlaneBody=0;fillColor=none;collapsible=0;dropTarget=0;points=[[0,0.5],[1,0.5]];portConstraint=eastwest;top=0;left=0;right=0;bottom=0;" parent="7VZWP-ycFN_4uUj7qxjZ-1" vertex="1">
          <mxGeometry y="270" width="213.75" height="30" as="geometry" />
        </mxCell>
        <mxCell id="7VZWP-ycFN_4uUj7qxjZ-98" value="" style="shape=partialRectangle;connectable=0;fillColor=none;top=0;left=0;bottom=0;right=0;editable=1;overflow=hidden;" parent="7VZWP-ycFN_4uUj7qxjZ-97" vertex="1">
          <mxGeometry width="30" height="30" as="geometry">
            <mxRectangle width="30" height="30" as="alternateBounds" />
          </mxGeometry>
        </mxCell>
        <mxCell id="7VZWP-ycFN_4uUj7qxjZ-99" value="Actors TEXT" style="shape=partialRectangle;connectable=0;fillColor=none;top=0;left=0;bottom=0;right=0;align=left;spacingLeft=6;overflow=hidden;" parent="7VZWP-ycFN_4uUj7qxjZ-97" vertex="1">
          <mxGeometry x="30" width="183.75" height="30" as="geometry">
            <mxRectangle width="183.75" height="30" as="alternateBounds" />
          </mxGeometry>
        </mxCell>
        <mxCell id="7VZWP-ycFN_4uUj7qxjZ-100" value="" style="shape=tableRow;horizontal=0;startSize=0;swimlaneHead=0;swimlaneBody=0;fillColor=none;collapsible=0;dropTarget=0;points=[[0,0.5],[1,0.5]];portConstraint=eastwest;top=0;left=0;right=0;bottom=0;" parent="7VZWP-ycFN_4uUj7qxjZ-1" vertex="1">
          <mxGeometry y="300" width="213.75" height="30" as="geometry" />
        </mxCell>
        <mxCell id="7VZWP-ycFN_4uUj7qxjZ-101" value="" style="shape=partialRectangle;connectable=0;fillColor=none;top=0;left=0;bottom=0;right=0;editable=1;overflow=hidden;" parent="7VZWP-ycFN_4uUj7qxjZ-100" vertex="1">
          <mxGeometry width="30" height="30" as="geometry">
            <mxRectangle width="30" height="30" as="alternateBounds" />
          </mxGeometry>
        </mxCell>
        <mxCell id="7VZWP-ycFN_4uUj7qxjZ-102" value="Country TEXT" style="shape=partialRectangle;connectable=0;fillColor=none;top=0;left=0;bottom=0;right=0;align=left;spacingLeft=6;overflow=hidden;" parent="7VZWP-ycFN_4uUj7qxjZ-100" vertex="1">
          <mxGeometry x="30" width="183.75" height="30" as="geometry">
            <mxRectangle width="183.75" height="30" as="alternateBounds" />
          </mxGeometry>
        </mxCell>
        <mxCell id="7VZWP-ycFN_4uUj7qxjZ-182" value="" style="shape=tableRow;horizontal=0;startSize=0;swimlaneHead=0;swimlaneBody=0;fillColor=none;collapsible=0;dropTarget=0;points=[[0,0.5],[1,0.5]];portConstraint=eastwest;top=0;left=0;right=0;bottom=0;" parent="7VZWP-ycFN_4uUj7qxjZ-1" vertex="1">
          <mxGeometry y="330" width="213.75" height="30" as="geometry" />
        </mxCell>
        <mxCell id="7VZWP-ycFN_4uUj7qxjZ-183" value="" style="shape=partialRectangle;connectable=0;fillColor=none;top=0;left=0;bottom=0;right=0;editable=1;overflow=hidden;" parent="7VZWP-ycFN_4uUj7qxjZ-182" vertex="1">
          <mxGeometry width="30" height="30" as="geometry">
            <mxRectangle width="30" height="30" as="alternateBounds" />
          </mxGeometry>
        </mxCell>
        <mxCell id="7VZWP-ycFN_4uUj7qxjZ-184" value="Studio TEXT" style="shape=partialRectangle;connectable=0;fillColor=none;top=0;left=0;bottom=0;right=0;align=left;spacingLeft=6;overflow=hidden;" parent="7VZWP-ycFN_4uUj7qxjZ-182" vertex="1">
          <mxGeometry x="30" width="183.75" height="30" as="geometry">
            <mxRectangle width="183.75" height="30" as="alternateBounds" />
          </mxGeometry>
        </mxCell>
        <mxCell id="7VZWP-ycFN_4uUj7qxjZ-185" value="" style="shape=tableRow;horizontal=0;startSize=0;swimlaneHead=0;swimlaneBody=0;fillColor=none;collapsible=0;dropTarget=0;points=[[0,0.5],[1,0.5]];portConstraint=eastwest;top=0;left=0;right=0;bottom=0;" parent="7VZWP-ycFN_4uUj7qxjZ-1" vertex="1">
          <mxGeometry y="360" width="213.75" height="30" as="geometry" />
        </mxCell>
        <mxCell id="7VZWP-ycFN_4uUj7qxjZ-186" value="" style="shape=partialRectangle;connectable=0;fillColor=none;top=0;left=0;bottom=0;right=0;editable=1;overflow=hidden;" parent="7VZWP-ycFN_4uUj7qxjZ-185" vertex="1">
          <mxGeometry width="30" height="30" as="geometry">
            <mxRectangle width="30" height="30" as="alternateBounds" />
          </mxGeometry>
        </mxCell>
        <mxCell id="7VZWP-ycFN_4uUj7qxjZ-187" value="Gross INTEGER" style="shape=partialRectangle;connectable=0;fillColor=none;top=0;left=0;bottom=0;right=0;align=left;spacingLeft=6;overflow=hidden;" parent="7VZWP-ycFN_4uUj7qxjZ-185" vertex="1">
          <mxGeometry x="30" width="183.75" height="30" as="geometry">
            <mxRectangle width="183.75" height="30" as="alternateBounds" />
          </mxGeometry>
        </mxCell>
        <mxCell id="7VZWP-ycFN_4uUj7qxjZ-179" value="" style="shape=tableRow;horizontal=0;startSize=0;swimlaneHead=0;swimlaneBody=0;fillColor=none;collapsible=0;dropTarget=0;points=[[0,0.5],[1,0.5]];portConstraint=eastwest;top=0;left=0;right=0;bottom=0;" parent="7VZWP-ycFN_4uUj7qxjZ-1" vertex="1">
          <mxGeometry y="390" width="213.75" height="30" as="geometry" />
        </mxCell>
        <mxCell id="7VZWP-ycFN_4uUj7qxjZ-180" value="" style="shape=partialRectangle;connectable=0;fillColor=none;top=0;left=0;bottom=0;right=0;editable=1;overflow=hidden;" parent="7VZWP-ycFN_4uUj7qxjZ-179" vertex="1">
          <mxGeometry width="30" height="30" as="geometry">
            <mxRectangle width="30" height="30" as="alternateBounds" />
          </mxGeometry>
        </mxCell>
        <mxCell id="7VZWP-ycFN_4uUj7qxjZ-181" value="Age_restriction INTEGER" style="shape=partialRectangle;connectable=0;fillColor=none;top=0;left=0;bottom=0;right=0;align=left;spacingLeft=6;overflow=hidden;" parent="7VZWP-ycFN_4uUj7qxjZ-179" vertex="1">
          <mxGeometry x="30" width="183.75" height="30" as="geometry">
            <mxRectangle width="183.75" height="30" as="alternateBounds" />
          </mxGeometry>
        </mxCell>
        <mxCell id="7VZWP-ycFN_4uUj7qxjZ-30" value="Users" style="shape=table;startSize=30;container=1;collapsible=1;childLayout=tableLayout;fixedRows=1;rowLines=0;fontStyle=1;align=center;resizeLast=1;html=1;" parent="1" vertex="1">
          <mxGeometry x="412" y="-223" width="218.75" height="300" as="geometry" />
        </mxCell>
        <mxCell id="7VZWP-ycFN_4uUj7qxjZ-31" value="" style="shape=tableRow;horizontal=0;startSize=0;swimlaneHead=0;swimlaneBody=0;fillColor=none;collapsible=0;dropTarget=0;points=[[0,0.5],[1,0.5]];portConstraint=eastwest;top=0;left=0;right=0;bottom=1;" parent="7VZWP-ycFN_4uUj7qxjZ-30" vertex="1">
          <mxGeometry y="30" width="218.75" height="30" as="geometry" />
        </mxCell>
        <mxCell id="7VZWP-ycFN_4uUj7qxjZ-32" value="PK" style="shape=partialRectangle;connectable=0;fillColor=none;top=0;left=0;bottom=0;right=0;fontStyle=1;overflow=hidden;whiteSpace=wrap;html=1;" parent="7VZWP-ycFN_4uUj7qxjZ-31" vertex="1">
          <mxGeometry width="30" height="30" as="geometry">
            <mxRectangle width="30" height="30" as="alternateBounds" />
          </mxGeometry>
        </mxCell>
        <mxCell id="7VZWP-ycFN_4uUj7qxjZ-33" value="User_ID INTEGER NOT NULL" style="shape=partialRectangle;connectable=0;fillColor=none;top=0;left=0;bottom=0;right=0;align=left;spacingLeft=6;fontStyle=5;overflow=hidden;whiteSpace=wrap;html=1;" parent="7VZWP-ycFN_4uUj7qxjZ-31" vertex="1">
          <mxGeometry x="30" width="188.75" height="30" as="geometry">
            <mxRectangle width="188.75" height="30" as="alternateBounds" />
          </mxGeometry>
        </mxCell>
        <mxCell id="7VZWP-ycFN_4uUj7qxjZ-34" value="" style="shape=tableRow;horizontal=0;startSize=0;swimlaneHead=0;swimlaneBody=0;fillColor=none;collapsible=0;dropTarget=0;points=[[0,0.5],[1,0.5]];portConstraint=eastwest;top=0;left=0;right=0;bottom=0;" parent="7VZWP-ycFN_4uUj7qxjZ-30" vertex="1">
          <mxGeometry y="60" width="218.75" height="30" as="geometry" />
        </mxCell>
        <mxCell id="7VZWP-ycFN_4uUj7qxjZ-35" value="" style="shape=partialRectangle;connectable=0;fillColor=none;top=0;left=0;bottom=0;right=0;editable=1;overflow=hidden;whiteSpace=wrap;html=1;" parent="7VZWP-ycFN_4uUj7qxjZ-34" vertex="1">
          <mxGeometry width="30" height="30" as="geometry">
            <mxRectangle width="30" height="30" as="alternateBounds" />
          </mxGeometry>
        </mxCell>
        <mxCell id="7VZWP-ycFN_4uUj7qxjZ-36" value="Name TEXT" style="shape=partialRectangle;connectable=0;fillColor=none;top=0;left=0;bottom=0;right=0;align=left;spacingLeft=6;overflow=hidden;whiteSpace=wrap;html=1;" parent="7VZWP-ycFN_4uUj7qxjZ-34" vertex="1">
          <mxGeometry x="30" width="188.75" height="30" as="geometry">
            <mxRectangle width="188.75" height="30" as="alternateBounds" />
          </mxGeometry>
        </mxCell>
        <mxCell id="7VZWP-ycFN_4uUj7qxjZ-37" value="" style="shape=tableRow;horizontal=0;startSize=0;swimlaneHead=0;swimlaneBody=0;fillColor=none;collapsible=0;dropTarget=0;points=[[0,0.5],[1,0.5]];portConstraint=eastwest;top=0;left=0;right=0;bottom=0;" parent="7VZWP-ycFN_4uUj7qxjZ-30" vertex="1">
          <mxGeometry y="90" width="218.75" height="30" as="geometry" />
        </mxCell>
        <mxCell id="7VZWP-ycFN_4uUj7qxjZ-38" value="" style="shape=partialRectangle;connectable=0;fillColor=none;top=0;left=0;bottom=0;right=0;editable=1;overflow=hidden;whiteSpace=wrap;html=1;" parent="7VZWP-ycFN_4uUj7qxjZ-37" vertex="1">
          <mxGeometry width="30" height="30" as="geometry">
            <mxRectangle width="30" height="30" as="alternateBounds" />
          </mxGeometry>
        </mxCell>
        <mxCell id="7VZWP-ycFN_4uUj7qxjZ-39" value="Age INTEGER" style="shape=partialRectangle;connectable=0;fillColor=none;top=0;left=0;bottom=0;right=0;align=left;spacingLeft=6;overflow=hidden;whiteSpace=wrap;html=1;" parent="7VZWP-ycFN_4uUj7qxjZ-37" vertex="1">
          <mxGeometry x="30" width="188.75" height="30" as="geometry">
            <mxRectangle width="188.75" height="30" as="alternateBounds" />
          </mxGeometry>
        </mxCell>
        <mxCell id="7VZWP-ycFN_4uUj7qxjZ-40" value="" style="shape=tableRow;horizontal=0;startSize=0;swimlaneHead=0;swimlaneBody=0;fillColor=none;collapsible=0;dropTarget=0;points=[[0,0.5],[1,0.5]];portConstraint=eastwest;top=0;left=0;right=0;bottom=0;" parent="7VZWP-ycFN_4uUj7qxjZ-30" vertex="1">
          <mxGeometry y="120" width="218.75" height="30" as="geometry" />
        </mxCell>
        <mxCell id="7VZWP-ycFN_4uUj7qxjZ-41" value="" style="shape=partialRectangle;connectable=0;fillColor=none;top=0;left=0;bottom=0;right=0;editable=1;overflow=hidden;whiteSpace=wrap;html=1;" parent="7VZWP-ycFN_4uUj7qxjZ-40" vertex="1">
          <mxGeometry width="30" height="30" as="geometry">
            <mxRectangle width="30" height="30" as="alternateBounds" />
          </mxGeometry>
        </mxCell>
        <mxCell id="7VZWP-ycFN_4uUj7qxjZ-42" value="Sex TEXT" style="shape=partialRectangle;connectable=0;fillColor=none;top=0;left=0;bottom=0;right=0;align=left;spacingLeft=6;overflow=hidden;whiteSpace=wrap;html=1;" parent="7VZWP-ycFN_4uUj7qxjZ-40" vertex="1">
          <mxGeometry x="30" width="188.75" height="30" as="geometry">
            <mxRectangle width="188.75" height="30" as="alternateBounds" />
          </mxGeometry>
        </mxCell>
        <mxCell id="7VZWP-ycFN_4uUj7qxjZ-194" value="" style="shape=tableRow;horizontal=0;startSize=0;swimlaneHead=0;swimlaneBody=0;fillColor=none;collapsible=0;dropTarget=0;points=[[0,0.5],[1,0.5]];portConstraint=eastwest;top=0;left=0;right=0;bottom=0;" parent="7VZWP-ycFN_4uUj7qxjZ-30" vertex="1">
          <mxGeometry y="150" width="218.75" height="30" as="geometry" />
        </mxCell>
        <mxCell id="7VZWP-ycFN_4uUj7qxjZ-195" value="" style="shape=partialRectangle;connectable=0;fillColor=none;top=0;left=0;bottom=0;right=0;editable=1;overflow=hidden;" parent="7VZWP-ycFN_4uUj7qxjZ-194" vertex="1">
          <mxGeometry width="30" height="30" as="geometry">
            <mxRectangle width="30" height="30" as="alternateBounds" />
          </mxGeometry>
        </mxCell>
        <mxCell id="7VZWP-ycFN_4uUj7qxjZ-196" value="Mobile TEXT" style="shape=partialRectangle;connectable=0;fillColor=none;top=0;left=0;bottom=0;right=0;align=left;spacingLeft=6;overflow=hidden;" parent="7VZWP-ycFN_4uUj7qxjZ-194" vertex="1">
          <mxGeometry x="30" width="188.75" height="30" as="geometry">
            <mxRectangle width="188.75" height="30" as="alternateBounds" />
          </mxGeometry>
        </mxCell>
        <mxCell id="7VZWP-ycFN_4uUj7qxjZ-43" value="" style="shape=tableRow;horizontal=0;startSize=0;swimlaneHead=0;swimlaneBody=0;fillColor=none;collapsible=0;dropTarget=0;points=[[0,0.5],[1,0.5]];portConstraint=eastwest;top=0;left=0;right=0;bottom=0;" parent="7VZWP-ycFN_4uUj7qxjZ-30" vertex="1">
          <mxGeometry y="180" width="218.75" height="30" as="geometry" />
        </mxCell>
        <mxCell id="7VZWP-ycFN_4uUj7qxjZ-44" value="" style="shape=partialRectangle;connectable=0;fillColor=none;top=0;left=0;bottom=0;right=0;editable=1;overflow=hidden;" parent="7VZWP-ycFN_4uUj7qxjZ-43" vertex="1">
          <mxGeometry width="30" height="30" as="geometry">
            <mxRectangle width="30" height="30" as="alternateBounds" />
          </mxGeometry>
        </mxCell>
        <mxCell id="7VZWP-ycFN_4uUj7qxjZ-45" value="Email TEXT" style="shape=partialRectangle;connectable=0;fillColor=none;top=0;left=0;bottom=0;right=0;align=left;spacingLeft=6;overflow=hidden;" parent="7VZWP-ycFN_4uUj7qxjZ-43" vertex="1">
          <mxGeometry x="30" width="188.75" height="30" as="geometry">
            <mxRectangle width="188.75" height="30" as="alternateBounds" />
          </mxGeometry>
        </mxCell>
        <mxCell id="7VZWP-ycFN_4uUj7qxjZ-49" value="" style="shape=tableRow;horizontal=0;startSize=0;swimlaneHead=0;swimlaneBody=0;fillColor=none;collapsible=0;dropTarget=0;points=[[0,0.5],[1,0.5]];portConstraint=eastwest;top=0;left=0;right=0;bottom=0;fontStyle=1" parent="7VZWP-ycFN_4uUj7qxjZ-30" vertex="1">
          <mxGeometry y="210" width="218.75" height="30" as="geometry" />
        </mxCell>
        <mxCell id="7VZWP-ycFN_4uUj7qxjZ-50" value="FK" style="shape=partialRectangle;connectable=0;fillColor=none;top=0;left=0;bottom=0;right=0;editable=1;overflow=hidden;fontStyle=1" parent="7VZWP-ycFN_4uUj7qxjZ-49" vertex="1">
          <mxGeometry width="30" height="30" as="geometry">
            <mxRectangle width="30" height="30" as="alternateBounds" />
          </mxGeometry>
        </mxCell>
        <mxCell id="7VZWP-ycFN_4uUj7qxjZ-51" value="Subscribtion_ID INTEGER NOT NULL" style="shape=partialRectangle;connectable=0;fillColor=none;top=0;left=0;bottom=0;right=0;align=left;spacingLeft=6;overflow=hidden;fontStyle=1" parent="7VZWP-ycFN_4uUj7qxjZ-49" vertex="1">
          <mxGeometry x="30" width="188.75" height="30" as="geometry">
            <mxRectangle width="188.75" height="30" as="alternateBounds" />
          </mxGeometry>
        </mxCell>
        <mxCell id="7VZWP-ycFN_4uUj7qxjZ-188" value="" style="shape=tableRow;horizontal=0;startSize=0;swimlaneHead=0;swimlaneBody=0;fillColor=none;collapsible=0;dropTarget=0;points=[[0,0.5],[1,0.5]];portConstraint=eastwest;top=0;left=0;right=0;bottom=0;" parent="7VZWP-ycFN_4uUj7qxjZ-30" vertex="1">
          <mxGeometry y="240" width="218.75" height="30" as="geometry" />
        </mxCell>
        <mxCell id="7VZWP-ycFN_4uUj7qxjZ-189" value="" style="shape=partialRectangle;connectable=0;fillColor=none;top=0;left=0;bottom=0;right=0;editable=1;overflow=hidden;" parent="7VZWP-ycFN_4uUj7qxjZ-188" vertex="1">
          <mxGeometry width="30" height="30" as="geometry">
            <mxRectangle width="30" height="30" as="alternateBounds" />
          </mxGeometry>
        </mxCell>
        <mxCell id="7VZWP-ycFN_4uUj7qxjZ-190" value="Login TEXT" style="shape=partialRectangle;connectable=0;fillColor=none;top=0;left=0;bottom=0;right=0;align=left;spacingLeft=6;overflow=hidden;" parent="7VZWP-ycFN_4uUj7qxjZ-188" vertex="1">
          <mxGeometry x="30" width="188.75" height="30" as="geometry">
            <mxRectangle width="188.75" height="30" as="alternateBounds" />
          </mxGeometry>
        </mxCell>
        <mxCell id="7VZWP-ycFN_4uUj7qxjZ-191" value="" style="shape=tableRow;horizontal=0;startSize=0;swimlaneHead=0;swimlaneBody=0;fillColor=none;collapsible=0;dropTarget=0;points=[[0,0.5],[1,0.5]];portConstraint=eastwest;top=0;left=0;right=0;bottom=0;" parent="7VZWP-ycFN_4uUj7qxjZ-30" vertex="1">
          <mxGeometry y="270" width="218.75" height="30" as="geometry" />
        </mxCell>
        <mxCell id="7VZWP-ycFN_4uUj7qxjZ-192" value="" style="shape=partialRectangle;connectable=0;fillColor=none;top=0;left=0;bottom=0;right=0;editable=1;overflow=hidden;" parent="7VZWP-ycFN_4uUj7qxjZ-191" vertex="1">
          <mxGeometry width="30" height="30" as="geometry">
            <mxRectangle width="30" height="30" as="alternateBounds" />
          </mxGeometry>
        </mxCell>
        <mxCell id="7VZWP-ycFN_4uUj7qxjZ-193" value="Password TEXT" style="shape=partialRectangle;connectable=0;fillColor=none;top=0;left=0;bottom=0;right=0;align=left;spacingLeft=6;overflow=hidden;" parent="7VZWP-ycFN_4uUj7qxjZ-191" vertex="1">
          <mxGeometry x="30" width="188.75" height="30" as="geometry">
            <mxRectangle width="188.75" height="30" as="alternateBounds" />
          </mxGeometry>
        </mxCell>
        <mxCell id="7VZWP-ycFN_4uUj7qxjZ-81" value="Subscriptions" style="shape=table;startSize=30;container=1;collapsible=1;childLayout=tableLayout;fixedRows=1;rowLines=0;fontStyle=1;align=center;resizeLast=1;html=1;" parent="1" vertex="1">
          <mxGeometry x="412" y="119" width="219.75" height="150" as="geometry" />
        </mxCell>
        <mxCell id="7VZWP-ycFN_4uUj7qxjZ-82" value="" style="shape=tableRow;horizontal=0;startSize=0;swimlaneHead=0;swimlaneBody=0;fillColor=none;collapsible=0;dropTarget=0;points=[[0,0.5],[1,0.5]];portConstraint=eastwest;top=0;left=0;right=0;bottom=1;" parent="7VZWP-ycFN_4uUj7qxjZ-81" vertex="1">
          <mxGeometry y="30" width="219.75" height="30" as="geometry" />
        </mxCell>
        <mxCell id="7VZWP-ycFN_4uUj7qxjZ-83" value="PK" style="shape=partialRectangle;connectable=0;fillColor=none;top=0;left=0;bottom=0;right=0;fontStyle=1;overflow=hidden;whiteSpace=wrap;html=1;" parent="7VZWP-ycFN_4uUj7qxjZ-82" vertex="1">
          <mxGeometry width="30" height="30" as="geometry">
            <mxRectangle width="30" height="30" as="alternateBounds" />
          </mxGeometry>
        </mxCell>
        <mxCell id="7VZWP-ycFN_4uUj7qxjZ-84" value="Subscribtion_ID INTEGER NOT NULL" style="shape=partialRectangle;connectable=0;fillColor=none;top=0;left=0;bottom=0;right=0;align=left;spacingLeft=6;fontStyle=5;overflow=hidden;whiteSpace=wrap;html=1;" parent="7VZWP-ycFN_4uUj7qxjZ-82" vertex="1">
          <mxGeometry x="30" width="189.75" height="30" as="geometry">
            <mxRectangle width="189.75" height="30" as="alternateBounds" />
          </mxGeometry>
        </mxCell>
        <mxCell id="7VZWP-ycFN_4uUj7qxjZ-85" value="" style="shape=tableRow;horizontal=0;startSize=0;swimlaneHead=0;swimlaneBody=0;fillColor=none;collapsible=0;dropTarget=0;points=[[0,0.5],[1,0.5]];portConstraint=eastwest;top=0;left=0;right=0;bottom=0;" parent="7VZWP-ycFN_4uUj7qxjZ-81" vertex="1">
          <mxGeometry y="60" width="219.75" height="30" as="geometry" />
        </mxCell>
        <mxCell id="7VZWP-ycFN_4uUj7qxjZ-86" value="" style="shape=partialRectangle;connectable=0;fillColor=none;top=0;left=0;bottom=0;right=0;editable=1;overflow=hidden;whiteSpace=wrap;html=1;" parent="7VZWP-ycFN_4uUj7qxjZ-85" vertex="1">
          <mxGeometry width="30" height="30" as="geometry">
            <mxRectangle width="30" height="30" as="alternateBounds" />
          </mxGeometry>
        </mxCell>
        <mxCell id="7VZWP-ycFN_4uUj7qxjZ-87" value="Name TEXT" style="shape=partialRectangle;connectable=0;fillColor=none;top=0;left=0;bottom=0;right=0;align=left;spacingLeft=6;overflow=hidden;whiteSpace=wrap;html=1;" parent="7VZWP-ycFN_4uUj7qxjZ-85" vertex="1">
          <mxGeometry x="30" width="189.75" height="30" as="geometry">
            <mxRectangle width="189.75" height="30" as="alternateBounds" />
          </mxGeometry>
        </mxCell>
        <mxCell id="7VZWP-ycFN_4uUj7qxjZ-88" value="" style="shape=tableRow;horizontal=0;startSize=0;swimlaneHead=0;swimlaneBody=0;fillColor=none;collapsible=0;dropTarget=0;points=[[0,0.5],[1,0.5]];portConstraint=eastwest;top=0;left=0;right=0;bottom=0;" parent="7VZWP-ycFN_4uUj7qxjZ-81" vertex="1">
          <mxGeometry y="90" width="219.75" height="30" as="geometry" />
        </mxCell>
        <mxCell id="7VZWP-ycFN_4uUj7qxjZ-89" value="" style="shape=partialRectangle;connectable=0;fillColor=none;top=0;left=0;bottom=0;right=0;editable=1;overflow=hidden;" parent="7VZWP-ycFN_4uUj7qxjZ-88" vertex="1">
          <mxGeometry width="30" height="30" as="geometry">
            <mxRectangle width="30" height="30" as="alternateBounds" />
          </mxGeometry>
        </mxCell>
        <mxCell id="7VZWP-ycFN_4uUj7qxjZ-90" value="Price INTEGER" style="shape=partialRectangle;connectable=0;fillColor=none;top=0;left=0;bottom=0;right=0;align=left;spacingLeft=6;overflow=hidden;" parent="7VZWP-ycFN_4uUj7qxjZ-88" vertex="1">
          <mxGeometry x="30" width="189.75" height="30" as="geometry">
            <mxRectangle width="189.75" height="30" as="alternateBounds" />
          </mxGeometry>
        </mxCell>
        <mxCell id="7VZWP-ycFN_4uUj7qxjZ-91" value="" style="shape=tableRow;horizontal=0;startSize=0;swimlaneHead=0;swimlaneBody=0;fillColor=none;collapsible=0;dropTarget=0;points=[[0,0.5],[1,0.5]];portConstraint=eastwest;top=0;left=0;right=0;bottom=0;" parent="7VZWP-ycFN_4uUj7qxjZ-81" vertex="1">
          <mxGeometry y="120" width="219.75" height="30" as="geometry" />
        </mxCell>
        <mxCell id="7VZWP-ycFN_4uUj7qxjZ-92" value="" style="shape=partialRectangle;connectable=0;fillColor=none;top=0;left=0;bottom=0;right=0;editable=1;overflow=hidden;" parent="7VZWP-ycFN_4uUj7qxjZ-91" vertex="1">
          <mxGeometry width="30" height="30" as="geometry">
            <mxRectangle width="30" height="30" as="alternateBounds" />
          </mxGeometry>
        </mxCell>
        <mxCell id="7VZWP-ycFN_4uUj7qxjZ-93" value="Duration INTEGER" style="shape=partialRectangle;connectable=0;fillColor=none;top=0;left=0;bottom=0;right=0;align=left;spacingLeft=6;overflow=hidden;" parent="7VZWP-ycFN_4uUj7qxjZ-91" vertex="1">
          <mxGeometry x="30" width="189.75" height="30" as="geometry">
            <mxRectangle width="189.75" height="30" as="alternateBounds" />
          </mxGeometry>
        </mxCell>
        <mxCell id="7VZWP-ycFN_4uUj7qxjZ-103" value="Rooms" style="shape=table;startSize=30;container=1;collapsible=1;childLayout=tableLayout;fixedRows=1;rowLines=0;fontStyle=1;align=center;resizeLast=1;html=1;" parent="1" vertex="1">
          <mxGeometry x="54" y="-223" width="245.75" height="210" as="geometry" />
        </mxCell>
        <mxCell id="7VZWP-ycFN_4uUj7qxjZ-104" value="" style="shape=tableRow;horizontal=0;startSize=0;swimlaneHead=0;swimlaneBody=0;fillColor=none;collapsible=0;dropTarget=0;points=[[0,0.5],[1,0.5]];portConstraint=eastwest;top=0;left=0;right=0;bottom=1;" parent="7VZWP-ycFN_4uUj7qxjZ-103" vertex="1">
          <mxGeometry y="30" width="245.75" height="30" as="geometry" />
        </mxCell>
        <mxCell id="7VZWP-ycFN_4uUj7qxjZ-105" value="PK" style="shape=partialRectangle;connectable=0;fillColor=none;top=0;left=0;bottom=0;right=0;fontStyle=1;overflow=hidden;whiteSpace=wrap;html=1;" parent="7VZWP-ycFN_4uUj7qxjZ-104" vertex="1">
          <mxGeometry width="30" height="30" as="geometry">
            <mxRectangle width="30" height="30" as="alternateBounds" />
          </mxGeometry>
        </mxCell>
        <mxCell id="7VZWP-ycFN_4uUj7qxjZ-106" value="Room_ID INTEGER NOT NULL" style="shape=partialRectangle;connectable=0;fillColor=none;top=0;left=0;bottom=0;right=0;align=left;spacingLeft=6;fontStyle=5;overflow=hidden;whiteSpace=wrap;html=1;" parent="7VZWP-ycFN_4uUj7qxjZ-104" vertex="1">
          <mxGeometry x="30" width="215.75" height="30" as="geometry">
            <mxRectangle width="215.75" height="30" as="alternateBounds" />
          </mxGeometry>
        </mxCell>
        <mxCell id="7VZWP-ycFN_4uUj7qxjZ-107" value="" style="shape=tableRow;horizontal=0;startSize=0;swimlaneHead=0;swimlaneBody=0;fillColor=none;collapsible=0;dropTarget=0;points=[[0,0.5],[1,0.5]];portConstraint=eastwest;top=0;left=0;right=0;bottom=0;" parent="7VZWP-ycFN_4uUj7qxjZ-103" vertex="1">
          <mxGeometry y="60" width="245.75" height="30" as="geometry" />
        </mxCell>
        <mxCell id="7VZWP-ycFN_4uUj7qxjZ-108" value="" style="shape=partialRectangle;connectable=0;fillColor=none;top=0;left=0;bottom=0;right=0;editable=1;overflow=hidden;whiteSpace=wrap;html=1;" parent="7VZWP-ycFN_4uUj7qxjZ-107" vertex="1">
          <mxGeometry width="30" height="30" as="geometry">
            <mxRectangle width="30" height="30" as="alternateBounds" />
          </mxGeometry>
        </mxCell>
        <mxCell id="7VZWP-ycFN_4uUj7qxjZ-109" value="Address TEXT" style="shape=partialRectangle;connectable=0;fillColor=none;top=0;left=0;bottom=0;right=0;align=left;spacingLeft=6;overflow=hidden;whiteSpace=wrap;html=1;" parent="7VZWP-ycFN_4uUj7qxjZ-107" vertex="1">
          <mxGeometry x="30" width="215.75" height="30" as="geometry">
            <mxRectangle width="215.75" height="30" as="alternateBounds" />
          </mxGeometry>
        </mxCell>
        <mxCell id="7VZWP-ycFN_4uUj7qxjZ-110" value="" style="shape=tableRow;horizontal=0;startSize=0;swimlaneHead=0;swimlaneBody=0;fillColor=none;collapsible=0;dropTarget=0;points=[[0,0.5],[1,0.5]];portConstraint=eastwest;top=0;left=0;right=0;bottom=0;" parent="7VZWP-ycFN_4uUj7qxjZ-103" vertex="1">
          <mxGeometry y="90" width="245.75" height="30" as="geometry" />
        </mxCell>
        <mxCell id="7VZWP-ycFN_4uUj7qxjZ-111" value="" style="shape=partialRectangle;connectable=0;fillColor=none;top=0;left=0;bottom=0;right=0;editable=1;overflow=hidden;whiteSpace=wrap;html=1;" parent="7VZWP-ycFN_4uUj7qxjZ-110" vertex="1">
          <mxGeometry width="30" height="30" as="geometry">
            <mxRectangle width="30" height="30" as="alternateBounds" />
          </mxGeometry>
        </mxCell>
        <mxCell id="7VZWP-ycFN_4uUj7qxjZ-112" value="Capacity INTEGER" style="shape=partialRectangle;connectable=0;fillColor=none;top=0;left=0;bottom=0;right=0;align=left;spacingLeft=6;overflow=hidden;whiteSpace=wrap;html=1;" parent="7VZWP-ycFN_4uUj7qxjZ-110" vertex="1">
          <mxGeometry x="30" width="215.75" height="30" as="geometry">
            <mxRectangle width="215.75" height="30" as="alternateBounds" />
          </mxGeometry>
        </mxCell>
        <mxCell id="7VZWP-ycFN_4uUj7qxjZ-113" value="" style="shape=tableRow;horizontal=0;startSize=0;swimlaneHead=0;swimlaneBody=0;fillColor=none;collapsible=0;dropTarget=0;points=[[0,0.5],[1,0.5]];portConstraint=eastwest;top=0;left=0;right=0;bottom=0;" parent="7VZWP-ycFN_4uUj7qxjZ-103" vertex="1">
          <mxGeometry y="120" width="245.75" height="30" as="geometry" />
        </mxCell>
        <mxCell id="7VZWP-ycFN_4uUj7qxjZ-114" value="&lt;span style=&quot;font-weight: 700; white-space: nowrap;&quot;&gt;FK&lt;/span&gt;" style="shape=partialRectangle;connectable=0;fillColor=none;top=0;left=0;bottom=0;right=0;editable=1;overflow=hidden;whiteSpace=wrap;html=1;" parent="7VZWP-ycFN_4uUj7qxjZ-113" vertex="1">
          <mxGeometry width="30" height="30" as="geometry">
            <mxRectangle width="30" height="30" as="alternateBounds" />
          </mxGeometry>
        </mxCell>
        <mxCell id="7VZWP-ycFN_4uUj7qxjZ-115" value="&lt;span style=&quot;font-weight: 700;&quot;&gt;User_ID INTEGER NOT NULL&lt;/span&gt;" style="shape=partialRectangle;connectable=0;fillColor=none;top=0;left=0;bottom=0;right=0;align=left;spacingLeft=6;overflow=hidden;whiteSpace=wrap;html=1;" parent="7VZWP-ycFN_4uUj7qxjZ-113" vertex="1">
          <mxGeometry x="30" width="215.75" height="30" as="geometry">
            <mxRectangle width="215.75" height="30" as="alternateBounds" />
          </mxGeometry>
        </mxCell>
        <mxCell id="7VZWP-ycFN_4uUj7qxjZ-197" value="" style="shape=tableRow;horizontal=0;startSize=0;swimlaneHead=0;swimlaneBody=0;fillColor=none;collapsible=0;dropTarget=0;points=[[0,0.5],[1,0.5]];portConstraint=eastwest;top=0;left=0;right=0;bottom=0;" parent="7VZWP-ycFN_4uUj7qxjZ-103" vertex="1">
          <mxGeometry y="150" width="245.75" height="30" as="geometry" />
        </mxCell>
        <mxCell id="7VZWP-ycFN_4uUj7qxjZ-198" value="FK" style="shape=partialRectangle;connectable=0;fillColor=none;top=0;left=0;bottom=0;right=0;editable=1;overflow=hidden;fontStyle=1" parent="7VZWP-ycFN_4uUj7qxjZ-197" vertex="1">
          <mxGeometry width="30" height="30" as="geometry">
            <mxRectangle width="30" height="30" as="alternateBounds" />
          </mxGeometry>
        </mxCell>
        <mxCell id="7VZWP-ycFN_4uUj7qxjZ-199" value="Film_ID INTEGER NOT NULL" style="shape=partialRectangle;connectable=0;fillColor=none;top=0;left=0;bottom=0;right=0;align=left;spacingLeft=6;overflow=hidden;fontStyle=1" parent="7VZWP-ycFN_4uUj7qxjZ-197" vertex="1">
          <mxGeometry x="30" width="215.75" height="30" as="geometry">
            <mxRectangle width="215.75" height="30" as="alternateBounds" />
          </mxGeometry>
        </mxCell>
        <mxCell id="qcZE7jXVwOFCr6oXbyX1-4" value="" style="shape=tableRow;horizontal=0;startSize=0;swimlaneHead=0;swimlaneBody=0;fillColor=none;collapsible=0;dropTarget=0;points=[[0,0.5],[1,0.5]];portConstraint=eastwest;top=0;left=0;right=0;bottom=0;" vertex="1" parent="7VZWP-ycFN_4uUj7qxjZ-103">
          <mxGeometry y="180" width="245.75" height="30" as="geometry" />
        </mxCell>
        <mxCell id="qcZE7jXVwOFCr6oXbyX1-5" value="" style="shape=partialRectangle;connectable=0;fillColor=none;top=0;left=0;bottom=0;right=0;editable=1;overflow=hidden;" vertex="1" parent="qcZE7jXVwOFCr6oXbyX1-4">
          <mxGeometry width="30" height="30" as="geometry">
            <mxRectangle width="30" height="30" as="alternateBounds" />
          </mxGeometry>
        </mxCell>
        <mxCell id="qcZE7jXVwOFCr6oXbyX1-6" value="Duration INTEGER" style="shape=partialRectangle;connectable=0;fillColor=none;top=0;left=0;bottom=0;right=0;align=left;spacingLeft=6;overflow=hidden;" vertex="1" parent="qcZE7jXVwOFCr6oXbyX1-4">
          <mxGeometry x="30" width="215.75" height="30" as="geometry">
            <mxRectangle width="215.75" height="30" as="alternateBounds" />
          </mxGeometry>
        </mxCell>
        <mxCell id="7VZWP-ycFN_4uUj7qxjZ-117" value="" style="edgeStyle=elbowEdgeStyle;fontSize=12;html=1;endArrow=ERoneToMany;rounded=0;startSize=8;endSize=8;" parent="1" source="7VZWP-ycFN_4uUj7qxjZ-82" target="7VZWP-ycFN_4uUj7qxjZ-49" edge="1">
          <mxGeometry width="100" height="100" relative="1" as="geometry">
            <mxPoint x="333" y="352" as="sourcePoint" />
            <mxPoint x="335" y="190" as="targetPoint" />
            <Array as="points">
              <mxPoint x="388" y="76" />
            </Array>
          </mxGeometry>
        </mxCell>
        <mxCell id="7VZWP-ycFN_4uUj7qxjZ-118" value="" style="edgeStyle=elbowEdgeStyle;fontSize=12;html=1;endArrow=ERoneToMany;rounded=0;startSize=8;endSize=8;entryX=1;entryY=0.5;entryDx=0;entryDy=0;exitX=0;exitY=0.5;exitDx=0;exitDy=0;" parent="1" source="7VZWP-ycFN_4uUj7qxjZ-31" target="7VZWP-ycFN_4uUj7qxjZ-113" edge="1">
          <mxGeometry width="100" height="100" relative="1" as="geometry">
            <mxPoint x="422" y="323" as="sourcePoint" />
            <mxPoint x="422" y="200" as="targetPoint" />
            <Array as="points">
              <mxPoint x="351" y="-132" />
            </Array>
          </mxGeometry>
        </mxCell>
        <mxCell id="7VZWP-ycFN_4uUj7qxjZ-132" value="History" style="shape=table;startSize=30;container=1;collapsible=1;childLayout=tableLayout;fixedRows=1;rowLines=0;fontStyle=1;align=center;resizeLast=1;html=1;" parent="1" vertex="1">
          <mxGeometry x="54" y="26" width="248.75" height="180" as="geometry" />
        </mxCell>
        <mxCell id="7VZWP-ycFN_4uUj7qxjZ-133" value="" style="shape=tableRow;horizontal=0;startSize=0;swimlaneHead=0;swimlaneBody=0;fillColor=none;collapsible=0;dropTarget=0;points=[[0,0.5],[1,0.5]];portConstraint=eastwest;top=0;left=0;right=0;bottom=1;" parent="7VZWP-ycFN_4uUj7qxjZ-132" vertex="1">
          <mxGeometry y="30" width="248.75" height="30" as="geometry" />
        </mxCell>
        <mxCell id="7VZWP-ycFN_4uUj7qxjZ-134" value="PK" style="shape=partialRectangle;connectable=0;fillColor=none;top=0;left=0;bottom=0;right=0;fontStyle=1;overflow=hidden;whiteSpace=wrap;html=1;" parent="7VZWP-ycFN_4uUj7qxjZ-133" vertex="1">
          <mxGeometry width="31.75" height="30" as="geometry">
            <mxRectangle width="31.75" height="30" as="alternateBounds" />
          </mxGeometry>
        </mxCell>
        <mxCell id="7VZWP-ycFN_4uUj7qxjZ-135" value="History_ID INTEGER NOT NULL" style="shape=partialRectangle;connectable=0;fillColor=none;top=0;left=0;bottom=0;right=0;align=left;spacingLeft=6;fontStyle=5;overflow=hidden;whiteSpace=wrap;html=1;" parent="7VZWP-ycFN_4uUj7qxjZ-133" vertex="1">
          <mxGeometry x="31.75" width="217" height="30" as="geometry">
            <mxRectangle width="217" height="30" as="alternateBounds" />
          </mxGeometry>
        </mxCell>
        <mxCell id="7VZWP-ycFN_4uUj7qxjZ-136" value="" style="shape=tableRow;horizontal=0;startSize=0;swimlaneHead=0;swimlaneBody=0;fillColor=none;collapsible=0;dropTarget=0;points=[[0,0.5],[1,0.5]];portConstraint=eastwest;top=0;left=0;right=0;bottom=0;" parent="7VZWP-ycFN_4uUj7qxjZ-132" vertex="1">
          <mxGeometry y="60" width="248.75" height="30" as="geometry" />
        </mxCell>
        <mxCell id="7VZWP-ycFN_4uUj7qxjZ-137" value="&lt;span style=&quot;font-weight: 700; white-space: nowrap;&quot;&gt;FK&lt;/span&gt;" style="shape=partialRectangle;connectable=0;fillColor=none;top=0;left=0;bottom=0;right=0;editable=1;overflow=hidden;whiteSpace=wrap;html=1;" parent="7VZWP-ycFN_4uUj7qxjZ-136" vertex="1">
          <mxGeometry width="31.75" height="30" as="geometry">
            <mxRectangle width="31.75" height="30" as="alternateBounds" />
          </mxGeometry>
        </mxCell>
        <mxCell id="7VZWP-ycFN_4uUj7qxjZ-138" value="&lt;span style=&quot;font-weight: 700;&quot;&gt;User_ID INTEGER NOT NULL&lt;/span&gt;" style="shape=partialRectangle;connectable=0;fillColor=none;top=0;left=0;bottom=0;right=0;align=left;spacingLeft=6;overflow=hidden;whiteSpace=wrap;html=1;" parent="7VZWP-ycFN_4uUj7qxjZ-136" vertex="1">
          <mxGeometry x="31.75" width="217" height="30" as="geometry">
            <mxRectangle width="217" height="30" as="alternateBounds" />
          </mxGeometry>
        </mxCell>
        <mxCell id="7VZWP-ycFN_4uUj7qxjZ-147" value="" style="shape=tableRow;horizontal=0;startSize=0;swimlaneHead=0;swimlaneBody=0;fillColor=none;collapsible=0;dropTarget=0;points=[[0,0.5],[1,0.5]];portConstraint=eastwest;top=0;left=0;right=0;bottom=0;" parent="7VZWP-ycFN_4uUj7qxjZ-132" vertex="1">
          <mxGeometry y="90" width="248.75" height="30" as="geometry" />
        </mxCell>
        <mxCell id="7VZWP-ycFN_4uUj7qxjZ-148" value="FK" style="shape=partialRectangle;connectable=0;fillColor=none;top=0;left=0;bottom=0;right=0;editable=1;overflow=hidden;fontStyle=1" parent="7VZWP-ycFN_4uUj7qxjZ-147" vertex="1">
          <mxGeometry width="31.75" height="30" as="geometry">
            <mxRectangle width="31.75" height="30" as="alternateBounds" />
          </mxGeometry>
        </mxCell>
        <mxCell id="7VZWP-ycFN_4uUj7qxjZ-149" value="Film_ID INTEGER NOT NULL" style="shape=partialRectangle;connectable=0;fillColor=none;top=0;left=0;bottom=0;right=0;align=left;spacingLeft=6;overflow=hidden;fontStyle=1" parent="7VZWP-ycFN_4uUj7qxjZ-147" vertex="1">
          <mxGeometry x="31.75" width="217" height="30" as="geometry">
            <mxRectangle width="217" height="30" as="alternateBounds" />
          </mxGeometry>
        </mxCell>
        <mxCell id="7VZWP-ycFN_4uUj7qxjZ-139" value="" style="shape=tableRow;horizontal=0;startSize=0;swimlaneHead=0;swimlaneBody=0;fillColor=none;collapsible=0;dropTarget=0;points=[[0,0.5],[1,0.5]];portConstraint=eastwest;top=0;left=0;right=0;bottom=0;" parent="7VZWP-ycFN_4uUj7qxjZ-132" vertex="1">
          <mxGeometry y="120" width="248.75" height="30" as="geometry" />
        </mxCell>
        <mxCell id="7VZWP-ycFN_4uUj7qxjZ-140" value="" style="shape=partialRectangle;connectable=0;fillColor=none;top=0;left=0;bottom=0;right=0;editable=1;overflow=hidden;whiteSpace=wrap;html=1;" parent="7VZWP-ycFN_4uUj7qxjZ-139" vertex="1">
          <mxGeometry width="31.75" height="30" as="geometry">
            <mxRectangle width="31.75" height="30" as="alternateBounds" />
          </mxGeometry>
        </mxCell>
        <mxCell id="7VZWP-ycFN_4uUj7qxjZ-141" value="Rating INTEGER" style="shape=partialRectangle;connectable=0;fillColor=none;top=0;left=0;bottom=0;right=0;align=left;spacingLeft=6;overflow=hidden;whiteSpace=wrap;html=1;" parent="7VZWP-ycFN_4uUj7qxjZ-139" vertex="1">
          <mxGeometry x="31.75" width="217" height="30" as="geometry">
            <mxRectangle width="217" height="30" as="alternateBounds" />
          </mxGeometry>
        </mxCell>
        <mxCell id="qcZE7jXVwOFCr6oXbyX1-1" value="" style="shape=tableRow;horizontal=0;startSize=0;swimlaneHead=0;swimlaneBody=0;fillColor=none;collapsible=0;dropTarget=0;points=[[0,0.5],[1,0.5]];portConstraint=eastwest;top=0;left=0;right=0;bottom=0;" vertex="1" parent="7VZWP-ycFN_4uUj7qxjZ-132">
          <mxGeometry y="150" width="248.75" height="30" as="geometry" />
        </mxCell>
        <mxCell id="qcZE7jXVwOFCr6oXbyX1-2" value="" style="shape=partialRectangle;connectable=0;fillColor=none;top=0;left=0;bottom=0;right=0;editable=1;overflow=hidden;" vertex="1" parent="qcZE7jXVwOFCr6oXbyX1-1">
          <mxGeometry width="31.75" height="30" as="geometry">
            <mxRectangle width="31.75" height="30" as="alternateBounds" />
          </mxGeometry>
        </mxCell>
        <mxCell id="qcZE7jXVwOFCr6oXbyX1-3" value="Date INTEGER" style="shape=partialRectangle;connectable=0;fillColor=none;top=0;left=0;bottom=0;right=0;align=left;spacingLeft=6;overflow=hidden;" vertex="1" parent="qcZE7jXVwOFCr6oXbyX1-1">
          <mxGeometry x="31.75" width="217" height="30" as="geometry">
            <mxRectangle width="217" height="30" as="alternateBounds" />
          </mxGeometry>
        </mxCell>
        <mxCell id="7VZWP-ycFN_4uUj7qxjZ-145" value="" style="edgeStyle=elbowEdgeStyle;fontSize=12;html=1;endArrow=ERoneToMany;rounded=0;startSize=8;endSize=8;entryX=1;entryY=0.5;entryDx=0;entryDy=0;exitX=0;exitY=0.5;exitDx=0;exitDy=0;" parent="1" source="7VZWP-ycFN_4uUj7qxjZ-31" target="7VZWP-ycFN_4uUj7qxjZ-136" edge="1">
          <mxGeometry width="100" height="100" relative="1" as="geometry">
            <mxPoint x="422" y="20" as="sourcePoint" />
            <mxPoint x="422" y="-78" as="targetPoint" />
            <Array as="points">
              <mxPoint x="351" y="-70" />
            </Array>
          </mxGeometry>
        </mxCell>
        <mxCell id="7VZWP-ycFN_4uUj7qxjZ-146" value="" style="edgeStyle=elbowEdgeStyle;fontSize=12;html=1;endArrow=ERoneToMany;rounded=0;startSize=8;endSize=8;exitX=1;exitY=0.5;exitDx=0;exitDy=0;entryX=0;entryY=0.5;entryDx=0;entryDy=0;" parent="1" source="7VZWP-ycFN_4uUj7qxjZ-2" target="7VZWP-ycFN_4uUj7qxjZ-197" edge="1">
          <mxGeometry width="100" height="100" relative="1" as="geometry">
            <mxPoint x="422" y="20" as="sourcePoint" />
            <mxPoint x="22" y="-18" as="targetPoint" />
            <Array as="points" />
          </mxGeometry>
        </mxCell>
        <mxCell id="7VZWP-ycFN_4uUj7qxjZ-150" value="" style="edgeStyle=elbowEdgeStyle;fontSize=12;html=1;endArrow=ERoneToMany;rounded=0;startSize=8;endSize=8;exitX=1;exitY=0.5;exitDx=0;exitDy=0;entryX=0;entryY=0.5;entryDx=0;entryDy=0;" parent="1" source="7VZWP-ycFN_4uUj7qxjZ-2" target="7VZWP-ycFN_4uUj7qxjZ-147" edge="1">
          <mxGeometry width="100" height="100" relative="1" as="geometry">
            <mxPoint x="-19" y="-168" as="sourcePoint" />
            <mxPoint x="74" y="31" as="targetPoint" />
            <Array as="points" />
          </mxGeometry>
        </mxCell>
        <mxCell id="7VZWP-ycFN_4uUj7qxjZ-164" value="Recommendations" style="shape=table;startSize=30;container=1;collapsible=1;childLayout=tableLayout;fixedRows=1;rowLines=0;fontStyle=1;align=center;resizeLast=1;html=1;" parent="1" vertex="1">
          <mxGeometry x="54" y="242" width="248.75" height="150" as="geometry" />
        </mxCell>
        <mxCell id="7VZWP-ycFN_4uUj7qxjZ-165" value="" style="shape=tableRow;horizontal=0;startSize=0;swimlaneHead=0;swimlaneBody=0;fillColor=none;collapsible=0;dropTarget=0;points=[[0,0.5],[1,0.5]];portConstraint=eastwest;top=0;left=0;right=0;bottom=1;" parent="7VZWP-ycFN_4uUj7qxjZ-164" vertex="1">
          <mxGeometry y="30" width="248.75" height="30" as="geometry" />
        </mxCell>
        <mxCell id="7VZWP-ycFN_4uUj7qxjZ-166" value="PK" style="shape=partialRectangle;connectable=0;fillColor=none;top=0;left=0;bottom=0;right=0;fontStyle=1;overflow=hidden;whiteSpace=wrap;html=1;" parent="7VZWP-ycFN_4uUj7qxjZ-165" vertex="1">
          <mxGeometry width="31.75" height="30" as="geometry">
            <mxRectangle width="31.75" height="30" as="alternateBounds" />
          </mxGeometry>
        </mxCell>
        <mxCell id="7VZWP-ycFN_4uUj7qxjZ-167" value="Recommendation_ID INTEGER NOT NULL" style="shape=partialRectangle;connectable=0;fillColor=none;top=0;left=0;bottom=0;right=0;align=left;spacingLeft=6;fontStyle=5;overflow=hidden;whiteSpace=wrap;html=1;" parent="7VZWP-ycFN_4uUj7qxjZ-165" vertex="1">
          <mxGeometry x="31.75" width="217" height="30" as="geometry">
            <mxRectangle width="217" height="30" as="alternateBounds" />
          </mxGeometry>
        </mxCell>
        <mxCell id="7VZWP-ycFN_4uUj7qxjZ-168" value="" style="shape=tableRow;horizontal=0;startSize=0;swimlaneHead=0;swimlaneBody=0;fillColor=none;collapsible=0;dropTarget=0;points=[[0,0.5],[1,0.5]];portConstraint=eastwest;top=0;left=0;right=0;bottom=0;" parent="7VZWP-ycFN_4uUj7qxjZ-164" vertex="1">
          <mxGeometry y="60" width="248.75" height="30" as="geometry" />
        </mxCell>
        <mxCell id="7VZWP-ycFN_4uUj7qxjZ-169" value="&lt;span style=&quot;font-weight: 700; white-space: nowrap;&quot;&gt;FK&lt;/span&gt;" style="shape=partialRectangle;connectable=0;fillColor=none;top=0;left=0;bottom=0;right=0;editable=1;overflow=hidden;whiteSpace=wrap;html=1;" parent="7VZWP-ycFN_4uUj7qxjZ-168" vertex="1">
          <mxGeometry width="31.75" height="30" as="geometry">
            <mxRectangle width="31.75" height="30" as="alternateBounds" />
          </mxGeometry>
        </mxCell>
        <mxCell id="7VZWP-ycFN_4uUj7qxjZ-170" value="&lt;span style=&quot;font-weight: 700;&quot;&gt;User_ID INTEGER NOT NULL&lt;/span&gt;" style="shape=partialRectangle;connectable=0;fillColor=none;top=0;left=0;bottom=0;right=0;align=left;spacingLeft=6;overflow=hidden;whiteSpace=wrap;html=1;" parent="7VZWP-ycFN_4uUj7qxjZ-168" vertex="1">
          <mxGeometry x="31.75" width="217" height="30" as="geometry">
            <mxRectangle width="217" height="30" as="alternateBounds" />
          </mxGeometry>
        </mxCell>
        <mxCell id="7VZWP-ycFN_4uUj7qxjZ-171" value="" style="shape=tableRow;horizontal=0;startSize=0;swimlaneHead=0;swimlaneBody=0;fillColor=none;collapsible=0;dropTarget=0;points=[[0,0.5],[1,0.5]];portConstraint=eastwest;top=0;left=0;right=0;bottom=0;" parent="7VZWP-ycFN_4uUj7qxjZ-164" vertex="1">
          <mxGeometry y="90" width="248.75" height="30" as="geometry" />
        </mxCell>
        <mxCell id="7VZWP-ycFN_4uUj7qxjZ-172" value="FK" style="shape=partialRectangle;connectable=0;fillColor=none;top=0;left=0;bottom=0;right=0;editable=1;overflow=hidden;fontStyle=1" parent="7VZWP-ycFN_4uUj7qxjZ-171" vertex="1">
          <mxGeometry width="31.75" height="30" as="geometry">
            <mxRectangle width="31.75" height="30" as="alternateBounds" />
          </mxGeometry>
        </mxCell>
        <mxCell id="7VZWP-ycFN_4uUj7qxjZ-173" value="Film_ID INTEGER NOT NULL" style="shape=partialRectangle;connectable=0;fillColor=none;top=0;left=0;bottom=0;right=0;align=left;spacingLeft=6;overflow=hidden;fontStyle=1" parent="7VZWP-ycFN_4uUj7qxjZ-171" vertex="1">
          <mxGeometry x="31.75" width="217" height="30" as="geometry">
            <mxRectangle width="217" height="30" as="alternateBounds" />
          </mxGeometry>
        </mxCell>
        <mxCell id="7VZWP-ycFN_4uUj7qxjZ-174" value="" style="shape=tableRow;horizontal=0;startSize=0;swimlaneHead=0;swimlaneBody=0;fillColor=none;collapsible=0;dropTarget=0;points=[[0,0.5],[1,0.5]];portConstraint=eastwest;top=0;left=0;right=0;bottom=0;" parent="7VZWP-ycFN_4uUj7qxjZ-164" vertex="1">
          <mxGeometry y="120" width="248.75" height="30" as="geometry" />
        </mxCell>
        <mxCell id="7VZWP-ycFN_4uUj7qxjZ-175" value="" style="shape=partialRectangle;connectable=0;fillColor=none;top=0;left=0;bottom=0;right=0;editable=1;overflow=hidden;whiteSpace=wrap;html=1;" parent="7VZWP-ycFN_4uUj7qxjZ-174" vertex="1">
          <mxGeometry width="31.75" height="30" as="geometry">
            <mxRectangle width="31.75" height="30" as="alternateBounds" />
          </mxGeometry>
        </mxCell>
        <mxCell id="7VZWP-ycFN_4uUj7qxjZ-176" value="Correlation INTEGER" style="shape=partialRectangle;connectable=0;fillColor=none;top=0;left=0;bottom=0;right=0;align=left;spacingLeft=6;overflow=hidden;whiteSpace=wrap;html=1;" parent="7VZWP-ycFN_4uUj7qxjZ-174" vertex="1">
          <mxGeometry x="31.75" width="217" height="30" as="geometry">
            <mxRectangle width="217" height="30" as="alternateBounds" />
          </mxGeometry>
        </mxCell>
        <mxCell id="7VZWP-ycFN_4uUj7qxjZ-177" value="" style="edgeStyle=elbowEdgeStyle;fontSize=12;html=1;endArrow=ERoneToMany;rounded=0;startSize=8;endSize=8;entryX=1;entryY=0.5;entryDx=0;entryDy=0;exitX=0;exitY=0.5;exitDx=0;exitDy=0;" parent="1" source="7VZWP-ycFN_4uUj7qxjZ-31" target="7VZWP-ycFN_4uUj7qxjZ-168" edge="1">
          <mxGeometry width="100" height="100" relative="1" as="geometry">
            <mxPoint x="422" y="-168" as="sourcePoint" />
            <mxPoint x="313" y="47" as="targetPoint" />
            <Array as="points">
              <mxPoint x="351" y="20" />
            </Array>
          </mxGeometry>
        </mxCell>
        <mxCell id="7VZWP-ycFN_4uUj7qxjZ-178" value="" style="edgeStyle=elbowEdgeStyle;fontSize=12;html=1;endArrow=ERoneToMany;rounded=0;startSize=8;endSize=8;exitX=1;exitY=0.5;exitDx=0;exitDy=0;entryX=0;entryY=0.5;entryDx=0;entryDy=0;" parent="1" source="7VZWP-ycFN_4uUj7qxjZ-2" target="7VZWP-ycFN_4uUj7qxjZ-171" edge="1">
          <mxGeometry width="100" height="100" relative="1" as="geometry">
            <mxPoint x="-19" y="-168" as="sourcePoint" />
            <mxPoint x="64" y="77" as="targetPoint" />
            <Array as="points" />
          </mxGeometry>
        </mxCell>
      </root>
    </mxGraphModel>
  </diagram>
</mxfile>
